<svg xmlns="http://www.w3.org/2000/svg" width="20" height="20" viewBox="0 0 20 20" fill="none">
<path d="M15.6243 8.09114V7.50397C15.6243 4.28003 13.1062 1.6665 10 1.6665C6.8938 1.6665 4.37573 4.28003 4.37573 7.50397V8.09114C4.37573 8.7958 4.17476 9.48469 3.79817 10.071L2.8753 11.5078C2.03235 12.8201 2.67587 14.6039 4.14197 15.0189C7.97728 16.1046 12.0227 16.1046 15.858 15.0189C17.3241 14.6039 17.9676 12.8201 17.1247 11.5078L16.2018 10.071C15.8252 9.48469 15.6243 8.7958 15.6243 8.09114Z" stroke="white" stroke-width="1.5"/>
<path d="M6.25 15.8335C6.79586 17.29 8.26871 18.3335 10 18.3335C11.7313 18.3335 13.2041 17.29 13.75 15.8335" stroke="white" stroke-width="1.5" stroke-linecap="round"/>
</svg>