<svg xmlns="http://www.w3.org/2000/svg" width="17" height="23" viewBox="0 0 17 23" fill="none">
    <path
        d="M16.4956 9.57793C16.834 7.31587 15.1117 6.09984 12.7567 5.28862L13.5206 2.22437L11.6554 1.75953L10.9116 4.74303C10.4213 4.62084 9.91766 4.50556 9.41722 4.39134L10.1663 1.38818L8.30213 0.92334L7.53766 3.98653C7.13179 3.89409 6.73335 3.80272 6.3466 3.70656L6.34873 3.697L3.77641 3.05471L3.28023 5.0469C3.28023 5.0469 4.66413 5.36406 4.63491 5.38371C5.39035 5.57231 5.52688 6.07221 5.50404 6.46853L4.63385 9.95937C4.68591 9.97265 4.75338 9.99178 4.82776 10.0215C4.7656 10.0061 4.69919 9.98912 4.63066 9.97265L3.41091 14.8628C3.31848 15.0923 3.0842 15.4366 2.55613 15.3059C2.57473 15.333 1.20038 14.9675 1.20038 14.9675L0.274414 17.1026L2.7017 17.7077C3.15326 17.8208 3.59579 17.9393 4.03141 18.0508L3.25951 21.1502L5.1226 21.615L5.88707 18.5486C6.39601 18.6867 6.89007 18.8142 7.37351 18.9343L6.61169 21.9863L8.47691 22.4512L9.24882 19.3577C12.4294 19.9596 14.8211 19.7168 15.8278 16.8401C16.639 14.5239 15.7874 13.1878 14.114 12.3165C15.3327 12.0355 16.2507 11.2338 16.4956 9.57793ZM12.2339 15.554C11.6575 17.8702 7.7576 16.6181 6.49323 16.3041L7.51748 12.1981C8.78185 12.5136 12.8364 13.1384 12.2339 15.554ZM12.8109 9.54447C12.2849 11.6514 9.03897 10.5809 7.98604 10.3185L8.91466 6.59443C9.9676 6.85687 13.3586 7.34668 12.8109 9.54447Z"
        fill="#3C3C48" />
</svg>