<svg width="23" height="23" viewBox="0 0 23 23" fill="none" xmlns="http://www.w3.org/2000/svg">
<path d="M22.6553 14.2821C21.1194 20.4429 14.8795 24.1923 8.71804 22.6559C2.55907 21.12 -1.19029 14.8798 0.3464 8.71937C1.88165 2.55789 8.12148 -1.19183 14.2812 0.344136C20.4423 1.8801 24.1913 8.12101 22.6553 14.2821Z" fill="white"/>
<path d="M16.5708 9.86239C16.7997 8.33217 15.6346 7.50956 14.0415 6.9608L14.5583 4.88792L13.2965 4.57347L12.7934 6.59172C12.4617 6.50906 12.121 6.43108 11.7825 6.35381L12.2892 4.32227L11.0282 4.00781L10.511 6.07997C10.2365 6.01744 9.96694 5.95562 9.70531 5.89058L9.70675 5.88411L7.96666 5.44962L7.631 6.79728C7.631 6.79728 8.56717 7.01183 8.54741 7.02512C9.05844 7.1527 9.1508 7.49087 9.13534 7.75897L8.54669 10.1204C8.58191 10.1294 8.62755 10.1423 8.67786 10.1625C8.63581 10.152 8.59089 10.1405 8.54453 10.1294L7.71941 13.4375C7.65687 13.5927 7.49839 13.8256 7.14117 13.7372C7.15375 13.7555 6.22405 13.5082 6.22405 13.5082L5.59766 14.9526L7.23964 15.3619C7.54511 15.4385 7.84447 15.5186 8.13916 15.5941L7.61698 17.6907L8.87731 18.0051L9.39445 15.9308C9.73873 16.0242 10.073 16.1105 10.4 16.1917L9.88464 18.2563L11.1464 18.5708L11.6686 16.4781C13.8202 16.8853 15.4381 16.7211 16.1191 14.775C16.6678 13.2082 16.0918 12.3043 14.9597 11.715C15.7841 11.5249 16.4051 10.9826 16.5708 9.86239ZM13.6879 13.905C13.298 15.4719 10.6598 14.6248 9.8045 14.4124L10.4974 11.6348C11.3527 11.8483 14.0954 12.2709 13.6879 13.905ZM14.0782 9.83975C13.7224 11.265 11.5266 10.5409 10.8143 10.3634L11.4425 7.84414C12.1548 8.02167 14.4487 8.35302 14.0782 9.83975Z" fill="#3C3C48"/>
</svg>
