<svg xmlns="http://www.w3.org/2000/svg" width="20" height="20" viewBox="0 0 20 20" fill="none">
    <path
        d="M13.4374 0.833344C13.4374 0.453648 13.1296 0.145844 12.7499 0.145844C12.3702 0.145844 12.0624 0.453648 12.0624 0.833344V19.1667C12.0624 19.5464 12.3702 19.8542 12.7499 19.8542C13.1296 19.8542 13.4374 19.5464 13.4374 19.1667V17.3282C15.8537 17.3029 17.1995 17.1525 18.0926 16.2594C19.1666 15.1855 19.1666 13.457 19.1666 10C19.1666 6.54304 19.1666 4.81456 18.0926 3.74062C17.1995 2.84748 15.8537 2.69712 13.4374 2.6718V0.833344Z"
        fill="#F64E2A" />
    <path fill-rule="evenodd" clip-rule="evenodd"
        d="M1.90719 16.2594C2.98114 17.3333 4.70962 17.3333 8.16658 17.3333H10.9166V10V2.66668H8.16659C4.70962 2.66668 2.98114 2.66668 1.90719 3.74062C0.833252 4.81456 0.833252 6.54304 0.833252 10C0.833252 13.457 0.833252 15.1855 1.90719 16.2594ZM10.9166 10C10.9166 9.49375 10.5062 9.08334 9.99992 9.08334C9.49366 9.08334 9.08325 9.49375 9.08325 10C9.08325 10.5063 9.49366 10.9167 9.99992 10.9167C10.5062 10.9167 10.9166 10.5063 10.9166 10ZM7.24992 10C7.24992 10.5063 6.83951 10.9167 6.33325 10.9167C5.82699 10.9167 5.41659 10.5063 5.41659 10C5.41659 9.49375 5.82699 9.08334 6.33325 9.08334C6.83951 9.08334 7.24992 9.49375 7.24992 10Z"
        fill="#F64E2A" />
</svg>