<svg width="24" height="25" viewBox="0 0 24 25" fill="none" xmlns="http://www.w3.org/2000/svg">
<path d="M10.25 10.53C10.25 11.07 10.4 11.15 10.74 11.27L11.25 11.45V9.75H10.95C10.57 9.75 10.25 10.1 10.25 10.53Z" fill="#F64E2A"/>
<path d="M12.75 15.2508H13.05C13.44 15.2508 13.75 14.9008 13.75 14.4708C13.75 13.9308 13.6 13.8508 13.26 13.7308L12.75 13.5508V15.2508Z" fill="#F64E2A"/>
<path d="M19.58 5.98L17.53 8.03C17.38 8.18 17.19 8.25 17 8.25C16.81 8.25 16.62 8.18 16.47 8.03C16.18 7.74 16.18 7.26 16.47 6.97L18.52 4.92C16.76 3.42 14.49 2.5 12 2.5C6.48 2.5 2 6.98 2 12.5C2 18.02 6.48 22.5 12 22.5C17.52 22.5 22 18.02 22 12.5C22 10.01 21.08 7.74 19.58 5.98ZM13.75 12.32C14.39 12.55 15.25 13.01 15.25 14.48C15.25 15.73 14.26 16.76 13.05 16.76H12.75V17.01C12.75 17.42 12.41 17.76 12 17.76C11.59 17.76 11.25 17.42 11.25 17.01V16.76H11.17C9.84 16.76 8.75 15.64 8.75 14.26C8.75 13.84 9.09 13.5 9.5 13.5C9.91 13.5 10.25 13.84 10.25 14.25C10.25 14.8 10.66 15.25 11.17 15.25H11.25V13.03L10.25 12.68C9.61 12.45 8.75 11.99 8.75 10.52C8.75 9.27 9.74 8.24 10.95 8.24H11.25V8C11.25 7.59 11.59 7.25 12 7.25C12.41 7.25 12.75 7.59 12.75 8V8.25H12.83C14.16 8.25 15.25 9.37 15.25 10.75C15.25 11.16 14.91 11.5 14.5 11.5C14.09 11.5 13.75 11.16 13.75 10.75C13.75 10.2 13.34 9.75 12.83 9.75H12.75V11.97L13.75 12.32Z" fill="#F64E2A"/>
<path d="M22.69 2.21C22.61 2.03 22.47 1.88 22.28 1.8C22.19 1.77 22.1 1.75 22 1.75H18C17.59 1.75 17.25 2.09 17.25 2.5C17.25 2.91 17.59 3.25 18 3.25H20.19L18.52 4.92C18.9 5.25 19.25 5.6 19.58 5.98L21.25 4.31V6.5C21.25 6.91 21.59 7.25 22 7.25C22.41 7.25 22.75 6.91 22.75 6.5V2.5C22.75 2.4 22.73 2.31 22.69 2.21Z" fill="#F64E2A"/>
</svg>
