<svg xmlns="http://www.w3.org/2000/svg" width="80" height="80" viewBox="0 0 80 80" fill="none">
    <g filter="url(#filter0_i_292_516)">
        <rect width="80" height="80" rx="40" fill="#F64E2A" />
        <path
            d="M38.4632 52.9387C38.4322 53.0536 38.4011 53.1684 38.3701 53.2833C38.9516 53.576 39.5184 53.9018 40.1179 54.1551C44.4043 55.9617 48.6939 57.7557 52.9884 59.5435C53.4343 59.7292 53.9031 59.896 54.3801 59.9731C55.2655 60.1163 55.8846 59.6819 55.9793 58.818C56.0332 58.3364 55.9614 57.8234 55.8487 57.3466C54.9845 53.6406 54.0632 49.9471 53.2301 46.2348C52.7074 43.9104 53.2824 41.7812 54.9551 40.0281C58.9899 35.8028 63.0802 31.6246 67.1395 27.4213C67.5936 26.9508 68.2519 26.4362 67.9007 25.7375C67.5315 25.0057 66.6968 25.2638 66.0532 25.3645C59.7985 26.337 53.5454 27.3316 47.2956 28.3309C46.8611 28.4001 46.4429 28.5622 46.0166 28.6803C46.0182 28.77 46.0215 28.8581 46.0231 28.9478C46.4249 29.0391 46.8235 29.1665 47.2302 29.2122C49.0941 29.4246 50.9596 29.6087 52.825 29.8149C53.6385 29.9046 54.5631 29.9361 54.8685 30.8299C55.174 31.7206 54.452 32.2856 53.8656 32.8301C51.7469 34.7925 49.6152 36.7438 47.49 38.6984C45.7062 40.3397 45.2178 42.6499 46.2077 44.8184C47.1045 46.7856 48.0258 48.7432 48.9144 50.7135C49.7083 52.476 48.7625 53.7444 46.799 53.5619C44.4435 53.3431 42.0896 53.0976 39.7324 52.8868C39.3159 52.849 38.8879 52.9182 38.4648 52.9371L38.4632 52.9387ZM31.4097 40.2799C31.5306 40.2547 31.6498 40.2296 31.7707 40.2044C31.8262 39.7779 31.9095 39.353 31.9324 38.925C32.0598 36.5723 32.0745 34.2086 32.3261 31.867C32.5172 30.0934 33.8404 29.2956 35.6634 29.6449C38.4338 30.1768 41.1944 30.767 43.9649 31.2973C44.4108 31.3823 44.896 31.2784 45.3631 31.2627C45.092 30.8787 44.8943 30.4113 44.5399 30.1265C42.266 28.2947 39.9562 26.5054 37.6595 24.6988C34.2683 22.0314 30.887 19.3514 27.4795 16.7013C27.0237 16.3457 26.4389 15.6847 25.8754 16.1741C25.5372 16.4668 25.4833 17.2978 25.6107 17.8171C27.3602 24.949 29.1603 32.07 30.9605 39.1909C31.0552 39.567 31.2561 39.918 31.4081 40.2815L31.4097 40.2799ZM28.8385 39.9557C28.7618 39.9148 28.6866 39.8739 28.6099 39.8346C28.3158 40.0706 27.9924 40.2815 27.7294 40.5475C23.43 44.8893 19.1371 49.2358 14.8492 53.587C14.5894 53.8514 14.3411 54.1426 14.1614 54.4604C13.8037 55.0946 14.0504 55.5542 14.8034 55.6045C15.2559 55.6344 15.7231 55.5479 16.1739 55.4629C20.867 54.5816 25.5601 53.6941 30.2515 52.8002C33.182 52.2415 36.1175 51.7018 39.03 51.0676C39.5331 50.9574 40.1065 50.501 40.3385 50.0541C40.6505 49.4593 40.1767 48.8959 39.6851 48.493C38.1708 47.2561 36.6435 46.0365 35.1047 44.8279C34.8825 44.6532 34.5722 44.5824 34.0821 44.3652C34.2161 44.9491 34.2634 45.3047 34.3827 45.6368C34.6832 46.4787 35.0508 47.2986 35.3236 48.1468C35.6405 49.1319 35.219 49.6749 34.1507 49.6969C32.9811 49.7221 31.8083 49.6512 30.6419 49.7189C28.1214 49.8668 27.174 47.9485 27.6069 46.1419C27.9989 44.51 28.3616 42.8702 28.7128 41.2289C28.801 40.8134 28.7993 40.3806 28.8385 39.9557Z"
            fill="#00020C" />
    </g>
    <defs>
        <filter id="filter0_i_292_516" x="-4" y="-4" width="84" height="84"
            filterUnits="userSpaceOnUse" color-interpolation-filters="sRGB">
            <feFlood flood-opacity="0" result="BackgroundImageFix" />
            <feBlend mode="normal" in="SourceGraphic" in2="BackgroundImageFix" result="shape" />
            <feColorMatrix in="SourceAlpha" type="matrix"
                values="0 0 0 0 0 0 0 0 0 0 0 0 0 0 0 0 0 0 127 0" result="hardAlpha" />
            <feOffset dx="-4" dy="-4" />
            <feGaussianBlur stdDeviation="6" />
            <feComposite in2="hardAlpha" operator="arithmetic" k2="-1" k3="1" />
            <feColorMatrix type="matrix" values="0 0 0 0 1 0 0 0 0 1 0 0 0 0 1 0 0 0 0.2 0" />
            <feBlend mode="normal" in2="shape" result="effect1_innerShadow_292_516" />
        </filter>
    </defs>
</svg>