<svg xmlns="http://www.w3.org/2000/svg" width="19" height="16" viewBox="0 0 19 16" fill="none">
    <path
        d="M17.3802 0.141241C17.3802 0.141241 19.1378 -0.551302 18.9913 1.13065C18.9425 1.82324 18.5031 4.24723 18.1613 6.8691L16.9896 14.6358C16.9896 14.6358 16.8919 15.7736 16.0131 15.9715C15.1343 16.1694 13.8161 15.279 13.5719 15.081C13.3766 14.9327 9.91021 12.7065 8.68962 11.6182C8.34785 11.3214 7.95724 10.7277 8.73841 10.0351L13.8649 5.08823C14.4508 4.4946 15.0366 3.10944 12.5955 4.7914L5.76024 9.49101C5.76024 9.49101 4.97903 9.98568 3.51436 9.54047L0.340835 8.5511C0.340835 8.5511 -0.830931 7.80906 1.17083 7.06698C6.05318 4.7419 12.0585 2.36736 17.3802 0.141241Z"
        fill="#F64E2A" />
</svg>