<svg width="25" height="25" viewBox="0 0 25 25" fill="none" xmlns="http://www.w3.org/2000/svg">
<path d="M2.08398 17.6042C2.08398 16.2402 2.08398 15.5583 2.39098 15.0573C2.56277 14.777 2.79846 14.5413 3.07878 14.3695C3.57976 14.0625 4.26172 14.0625 5.62565 14.0625H6.77148C8.73567 14.0625 9.71776 14.0625 10.328 14.6727C10.9382 15.2829 10.9382 16.265 10.9382 18.2292V19.375C10.9382 20.7389 10.9382 21.4209 10.6312 21.9219C10.4594 22.2022 10.2237 22.4379 9.94336 22.6097C9.44238 22.9167 8.76041 22.9167 7.39648 22.9167C5.35059 22.9167 4.32764 22.9167 3.57618 22.4562C3.15569 22.1985 2.80216 21.845 2.54448 21.4245C2.08398 20.673 2.08398 19.6501 2.08398 17.6042Z" stroke="#F64E2A" stroke-width="1.5"/>
<path d="M14.0625 5.62565C14.0625 4.26172 14.0625 3.57976 14.3695 3.07878C14.5413 2.79846 14.777 2.56277 15.0573 2.39098C15.5583 2.08398 16.2402 2.08398 17.6042 2.08398C19.6501 2.08398 20.673 2.08398 21.4245 2.54448C21.845 2.80216 22.1985 3.15569 22.4562 3.57618C22.9167 4.32764 22.9167 5.35059 22.9167 7.39649C22.9167 8.76041 22.9167 9.44238 22.6097 9.94336C22.4379 10.2237 22.2022 10.4594 21.9219 10.6312C21.4209 10.9382 20.7389 10.9382 19.375 10.9382H18.2292C16.265 10.9382 15.2829 10.9382 14.6727 10.328C14.0625 9.71776 14.0625 8.73567 14.0625 6.77148V5.62565Z" stroke="#F64E2A" stroke-width="1.5"/>
<path d="M17.1875 6.51107C17.1875 5.97419 17.1875 5.70574 17.322 5.5162C17.3694 5.44932 17.4278 5.39093 17.4947 5.34347C17.6843 5.20898 17.9527 5.20898 18.4896 5.20898C19.0265 5.20898 19.2949 5.20898 19.4844 5.34347C19.5513 5.39093 19.6097 5.44932 19.6572 5.5162C19.7917 5.70574 19.7917 5.97419 19.7917 6.51107C19.7917 7.04795 19.7917 7.31639 19.6572 7.50593C19.6097 7.57281 19.5513 7.63121 19.4844 7.67866C19.2949 7.81315 19.0265 7.81315 18.4896 7.81315C17.9527 7.81315 17.6843 7.81315 17.4947 7.67866C17.4278 7.63121 17.3694 7.57281 17.322 7.50593C17.1875 7.31639 17.1875 7.04795 17.1875 6.51107Z" fill="#F64E2A"/>
<path d="M13.3125 22.9167C13.3125 23.3309 13.6483 23.6667 14.0625 23.6667C14.4767 23.6667 14.8125 23.3309 14.8125 22.9167H13.3125ZM14.9884 14.4136L15.4051 15.0372L15.4051 15.0372L14.9884 14.4136ZM14.4136 14.9884L13.79 14.5717L13.79 14.5717L14.4136 14.9884ZM19.7917 13.3125H17.7083V14.8125H19.7917V13.3125ZM13.3125 19.7917V22.9167H14.8125V19.7917H13.3125ZM17.7083 13.3125C16.9925 13.3125 16.3991 13.3116 15.9209 13.3602C15.4302 13.4102 14.9782 13.5184 14.5717 13.79L15.4051 15.0372C15.524 14.9577 15.7006 14.8904 16.0727 14.8525C16.4574 14.8134 16.9612 14.8125 17.7083 14.8125V13.3125ZM14.8125 17.7083C14.8125 16.9612 14.8134 16.4574 14.8525 16.0727C14.8904 15.7006 14.9577 15.524 15.0372 15.4051L13.79 14.5717C13.5184 14.9782 13.4102 15.4302 13.3602 15.9209C13.3116 16.3991 13.3125 16.9925 13.3125 17.7083H14.8125ZM14.5717 13.79C14.2623 13.9967 13.9967 14.2623 13.79 14.5717L15.0372 15.4051C15.1345 15.2595 15.2595 15.1345 15.4051 15.0372L14.5717 13.79Z" fill="#F64E2A"/>
<path d="M23.6673 14.0625C23.6673 13.6483 23.3315 13.3125 22.9173 13.3125C22.5031 13.3125 22.1673 13.6483 22.1673 14.0625H23.6673ZM21.6312 22.7581L21.9183 23.451H21.9183L21.6312 22.7581ZM22.7587 21.6306L22.0658 21.3436L22.0658 21.3436L22.7587 21.6306ZM17.709 23.6667H19.7923V22.1667H17.709V23.6667ZM23.6673 17.7083V14.0625H22.1673V17.7083H23.6673ZM19.7923 23.6667C20.2674 23.6667 20.6613 23.6671 20.9833 23.6451C21.312 23.6227 21.6202 23.5744 21.9183 23.451L21.3442 22.0652C21.2594 22.1003 21.1335 22.1314 20.8812 22.1486C20.6221 22.1663 20.2879 22.1667 19.7923 22.1667V23.6667ZM22.1673 19.7917C22.1673 20.2873 22.1669 20.6214 22.1492 20.8805C22.132 21.1329 22.101 21.2588 22.0658 21.3436L23.4516 21.9176C23.5751 21.6196 23.6233 21.3113 23.6458 20.9826C23.6677 20.6606 23.6673 20.2668 23.6673 19.7917H22.1673ZM21.9183 23.451C22.6125 23.1634 23.1641 22.6119 23.4516 21.9176L22.0658 21.3436C21.9305 21.6703 21.6709 21.9298 21.3442 22.0652L21.9183 23.451Z" fill="#F64E2A"/>
<path d="M2.08398 7.39648C2.08398 5.35059 2.08398 4.32764 2.54448 3.57618C2.80216 3.15569 3.15569 2.80216 3.57618 2.54448C4.32764 2.08398 5.35059 2.08398 7.39649 2.08398C8.76041 2.08398 9.44238 2.08398 9.94336 2.39098C10.2237 2.56277 10.4594 2.79846 10.6312 3.07878C10.9382 3.57976 10.9382 4.26172 10.9382 5.62565V6.77148C10.9382 8.73567 10.9382 9.71776 10.328 10.328C9.71776 10.9382 8.73567 10.9382 6.77148 10.9382H5.62565C4.26172 10.9382 3.57976 10.9382 3.07878 10.6312C2.79846 10.4594 2.56277 10.2237 2.39098 9.94336C2.08398 9.44238 2.08398 8.76041 2.08398 7.39648Z" stroke="#F64E2A" stroke-width="1.5"/>
<path d="M5.20898 6.51107C5.20898 5.97419 5.20898 5.70574 5.34347 5.5162C5.39093 5.44932 5.44932 5.39093 5.5162 5.34347C5.70574 5.20898 5.97419 5.20898 6.51107 5.20898C7.04795 5.20898 7.31639 5.20898 7.50593 5.34347C7.57281 5.39093 7.63121 5.44932 7.67866 5.5162C7.81315 5.70574 7.81315 5.97419 7.81315 6.51107C7.81315 7.04795 7.81315 7.31639 7.67866 7.50593C7.63121 7.57281 7.57281 7.63121 7.50593 7.67866C7.31639 7.81315 7.04795 7.81315 6.51107 7.81315C5.97419 7.81315 5.70574 7.81315 5.5162 7.67866C5.44932 7.63121 5.39093 7.57281 5.34347 7.50593C5.20898 7.31639 5.20898 7.04795 5.20898 6.51107Z" fill="#F64E2A"/>
<path d="M5.20898 18.4896C5.20898 17.9527 5.20898 17.6843 5.34347 17.4947C5.39093 17.4278 5.44932 17.3694 5.5162 17.322C5.70574 17.1875 5.97419 17.1875 6.51107 17.1875C7.04795 17.1875 7.31639 17.1875 7.50593 17.322C7.57281 17.3694 7.63121 17.4278 7.67866 17.4947C7.81315 17.6843 7.81315 17.9527 7.81315 18.4896C7.81315 19.0265 7.81315 19.2949 7.67866 19.4844C7.63121 19.5513 7.57281 19.6097 7.50593 19.6572C7.31639 19.7917 7.04795 19.7917 6.51107 19.7917C5.97419 19.7917 5.70574 19.7917 5.5162 19.6572C5.44932 19.6097 5.39093 19.5513 5.34347 19.4844C5.20898 19.2949 5.20898 19.0265 5.20898 18.4896Z" fill="#F64E2A"/>
<path d="M16.666 18.4889C16.666 17.7574 16.666 17.3917 16.8416 17.129C16.9176 17.0152 17.0152 16.9176 17.129 16.8416C17.3917 16.666 17.7574 16.666 18.4889 16.666C19.2204 16.666 19.5862 16.666 19.8489 16.8416C19.9626 16.9176 20.0603 17.0152 20.1363 17.129C20.3118 17.3917 20.3118 17.7574 20.3118 18.4889C20.3118 19.2204 20.3118 19.5862 20.1363 19.8489C20.0603 19.9626 19.9626 20.0603 19.8489 20.1363C19.5862 20.3118 19.2204 20.3118 18.4889 20.3118C17.7574 20.3118 17.3917 20.3118 17.129 20.1363C17.0152 20.0603 16.9176 19.9626 16.8416 19.8489C16.666 19.5862 16.666 19.2204 16.666 18.4889Z" fill="#F64E2A"/>
</svg>
